<svg width="35" height="35" viewBox="0 0 35 35" fill="none" xmlns="http://www.w3.org/2000/svg">
<rect width="35" height="35" rx="17.5" fill="#FF0000"/>
<path d="M8.05937 12.2216C8.1791 11.697 8.4734 11.2286 8.89409 10.8931C9.31479 10.5576 9.83693 10.375 10.375 10.375H24.625C25.1631 10.375 25.6852 10.5576 26.1059 10.8931C26.5266 11.2286 26.8209 11.697 26.9406 12.2216L17.5 17.9916L8.05937 12.2216ZM8 13.5777V22.0137L14.8911 17.7886L8 13.5777ZM16.0287 18.4856L8.22681 23.2677C8.41958 23.6742 8.72381 24.0175 9.10412 24.2578C9.48442 24.4981 9.92514 24.6254 10.375 24.625H24.625C25.0748 24.6251 25.5153 24.4975 25.8954 24.257C26.2755 24.0165 26.5795 23.673 26.772 23.2665L18.9701 18.4844L17.5 19.3834L16.0287 18.4844V18.4856ZM20.1089 17.7898L27 22.0137V13.5777L20.1089 17.7886V17.7898Z" fill="white"/>
</svg>
