<svg width="35" height="35" viewBox="0 0 35 35" fill="none" xmlns="http://www.w3.org/2000/svg">
<g clip-path="url(#clip0_49_1755)">
<rect width="35" height="35" rx="17.5" fill="white"/>
<path d="M35.0005 17.6094C35.0005 7.88375 27.1648 0 17.5005 0C7.83172 0.0021875 -0.00390625 7.88375 -0.00390625 17.6116C-0.00390625 26.3988 6.39672 33.6831 14.7617 35.0044V22.6997H10.3211V17.6116H14.7661V13.7288C14.7661 9.31656 17.3802 6.87969 21.3767 6.87969C23.293 6.87969 25.2945 7.22313 25.2945 7.22313V11.5544H23.0873C20.9152 11.5544 20.237 12.9128 20.237 14.3063V17.6094H25.0889L24.3145 22.6975H20.2348V35.0022C28.5998 33.6809 35.0005 26.3966 35.0005 17.6094Z" fill="#1173EA"/>
</g>
<defs>
<clipPath id="clip0_49_1755">
<rect width="35" height="35" rx="17.5" fill="white"/>
</clipPath>
</defs>
</svg>
