<svg width="35" height="35" viewBox="0 0 35 35" fill="none" xmlns="http://www.w3.org/2000/svg">
<rect width="35" height="35" rx="17.5" fill="#00C854"/>
<path d="M17.5 7C23.8408 7 29 11.186 29 16.3323C29 18.3922 28.2022 20.2466 26.5347 22.0736C24.1226 24.8509 18.7276 28.2333 17.5 28.7508C16.3069 29.2539 16.4449 28.4676 16.4995 28.1571L16.5038 28.1313L16.6677 27.1466C16.7065 26.8533 16.7467 26.3976 16.6303 26.1073C16.5009 25.7867 15.9921 25.6199 15.6183 25.5394C10.0911 24.8106 6 20.9452 6 16.3323C6 11.186 11.1606 7 17.5 7ZM13.2191 18.0486H11.0269V14.0696C11.0269 14.0104 11.0035 13.9536 10.9618 13.9116C10.92 13.8695 10.8634 13.8458 10.8041 13.8454H9.99625C9.9668 13.8454 9.93764 13.8512 9.91043 13.8624C9.88323 13.8737 9.8585 13.8902 9.83768 13.9111C9.81686 13.9319 9.80034 13.9566 9.78907 13.9838C9.7778 14.011 9.772 14.0402 9.772 14.0696V19.0808C9.772 19.1397 9.79644 19.1957 9.83525 19.2346V19.236L9.83813 19.2389L9.841 19.2417C9.88269 19.2818 9.93841 19.304 9.99625 19.3036H13.2191C13.3427 19.3036 13.4419 19.2029 13.4419 19.0793V18.2743C13.4421 18.2449 13.4365 18.2157 13.4254 18.1884C13.4143 18.1611 13.398 18.1363 13.3773 18.1153C13.3566 18.0944 13.332 18.0777 13.3048 18.0662C13.2777 18.0548 13.2486 18.0488 13.2191 18.0486ZM14.3562 13.8454C14.2967 13.8454 14.2397 13.869 14.1976 13.9111C14.1556 13.9531 14.1319 14.0102 14.1319 14.0696V19.0808C14.1319 19.2044 14.2326 19.3036 14.3562 19.3036H15.1641C15.2877 19.3036 15.3869 19.2029 15.3869 19.0808V14.0696C15.3869 14.0104 15.3634 13.9536 15.3217 13.9116C15.28 13.8695 15.2233 13.8458 15.1641 13.8454H14.3562ZM19.9092 13.8454C19.8498 13.8454 19.7927 13.869 19.7507 13.9111C19.7086 13.9531 19.685 14.0102 19.685 14.0696V17.0452L17.3893 13.946C17.3835 13.9385 17.3773 13.9313 17.3706 13.9244V13.923C17.3661 13.918 17.3613 13.9132 17.3562 13.9086L17.3519 13.9043C17.347 13.8996 17.3417 13.8953 17.3361 13.8914H17.3347L17.3275 13.8856L17.3232 13.8828C17.3209 13.8811 17.3185 13.8796 17.316 13.8784L17.3045 13.8713H17.3016L17.2973 13.8684L17.2829 13.8626L17.2772 13.8597C17.2725 13.858 17.2677 13.8566 17.2628 13.8554H17.2599L17.2556 13.854L17.2427 13.8511H17.2341L17.2297 13.8497H17.224L17.2211 13.8482H16.396C16.3368 13.8482 16.28 13.8717 16.2379 13.9134C16.1959 13.9552 16.1721 14.0118 16.1718 14.0711V19.0822C16.1718 19.2058 16.2724 19.305 16.396 19.305H17.201C17.3261 19.305 17.4267 19.2044 17.4267 19.0822V16.1066L19.7267 19.2116C19.742 19.233 19.761 19.2515 19.7828 19.2662L19.7842 19.2676L19.7986 19.2762L19.8043 19.2791C19.808 19.2813 19.8119 19.2832 19.8158 19.2849L19.8259 19.2892L19.8331 19.2921C19.8378 19.2936 19.8426 19.2951 19.8474 19.2964H19.8517C19.8705 19.3017 19.8898 19.3046 19.9092 19.305H20.7143C20.8393 19.305 20.9399 19.2044 20.9399 19.0822V14.0696C20.9399 14.0102 20.9163 13.9531 20.8743 13.9111C20.8322 13.869 20.7752 13.8454 20.7157 13.8454H19.9092ZM25.3933 14.8761V14.0711C25.3935 14.0416 25.3879 14.0124 25.3768 13.9851C25.3657 13.9579 25.3493 13.933 25.3286 13.9121C25.308 13.8911 25.2833 13.8744 25.2562 13.863C25.2291 13.8516 25.1999 13.8456 25.1705 13.8454H21.9476C21.8896 13.8454 21.8339 13.8681 21.7924 13.9086H21.7909L21.7895 13.9115L21.7866 13.9158C21.7465 13.957 21.7238 14.0121 21.7234 14.0696V19.0808C21.7234 19.1397 21.7478 19.1957 21.7866 19.2346L21.7895 19.2389L21.7924 19.2417C21.8341 19.2817 21.8898 19.3039 21.9476 19.3036H25.1705C25.2941 19.3036 25.3933 19.2029 25.3933 19.0793V18.2743C25.3935 18.2449 25.3879 18.2157 25.3768 18.1884C25.3657 18.1611 25.3493 18.1363 25.3286 18.1153C25.308 18.0944 25.2833 18.0777 25.2562 18.0662C25.2291 18.0548 25.1999 18.0488 25.1705 18.0486H22.9769V17.2019H25.1691C25.2927 17.2019 25.3919 17.1013 25.3919 16.9777V16.1727C25.3921 16.1432 25.3865 16.114 25.3754 16.0868C25.3643 16.0595 25.3479 16.0347 25.3272 16.0137C25.3065 15.9927 25.2819 15.9761 25.2548 15.9646C25.2276 15.9532 25.1985 15.9472 25.1691 15.947H22.9769V15.1003H25.1691C25.2927 15.1003 25.3919 14.9997 25.3919 14.8761H25.3933Z" fill="white"/>
</svg>
