<svg width="35" height="35" viewBox="0 0 35 35" fill="none" xmlns="http://www.w3.org/2000/svg">
<path d="M18 35C18 35 31 22.5619 31 13.125C31 9.64403 29.6304 6.30564 27.1924 3.84422C24.7544 1.38281 21.4478 0 18 0C14.5522 0 11.2456 1.38281 8.80761 3.84422C6.36964 6.30564 5 9.64403 5 13.125C5 22.5619 18 35 18 35ZM18 19.6875C16.2761 19.6875 14.6228 18.9961 13.4038 17.7654C12.1848 16.5347 11.5 14.8655 11.5 13.125C11.5 11.3845 12.1848 9.71532 13.4038 8.48461C14.6228 7.2539 16.2761 6.5625 18 6.5625C19.7239 6.5625 21.3772 7.2539 22.5962 8.48461C23.8152 9.71532 24.5 11.3845 24.5 13.125C24.5 14.8655 23.8152 16.5347 22.5962 17.7654C21.3772 18.9961 19.7239 19.6875 18 19.6875Z" fill="#1173EA"/>
</svg>
