<svg width="35" height="35" viewBox="0 0 35 35" fill="none" xmlns="http://www.w3.org/2000/svg">
<rect width="35" height="35" rx="10" fill="url(#paint0_linear_96_887)"/>
<path d="M17.5 3C13.5651 3 13.0703 3.01813 11.5242 3.087C9.97813 3.1595 8.92506 3.40237 8.0025 3.76125C7.0348 4.12523 6.15827 4.69619 5.43419 5.43419C4.69664 6.15864 4.12576 7.03506 3.76125 8.0025C3.40237 8.92325 3.15769 9.97812 3.087 11.5187C3.01813 13.0684 3 13.5614 3 17.5018C3 21.4386 3.01813 21.9316 3.087 23.4776C3.1595 25.0219 3.40237 26.0749 3.76125 26.9975C4.13281 27.9509 4.62763 28.7592 5.43419 29.5658C6.23894 30.3724 7.04731 30.869 8.00069 31.2387C8.92506 31.5976 9.97631 31.8423 11.5206 31.913C13.0684 31.9819 13.5614 32 17.5 32C21.4386 32 21.9298 31.9819 23.4776 31.913C25.0201 31.8405 26.0768 31.5976 26.9993 31.2387C27.9664 30.8746 28.8423 30.3036 29.5658 29.5658C30.3724 28.7592 30.8672 27.9509 31.2387 26.9975C31.5958 26.0749 31.8405 25.0219 31.913 23.4776C31.9819 21.9316 32 21.4386 32 17.5C32 13.5614 31.9819 13.0684 31.913 11.5206C31.8405 9.97813 31.5958 8.92325 31.2387 8.0025C30.8743 7.03503 30.3034 6.1586 29.5658 5.43419C28.842 4.69591 27.9654 4.12492 26.9975 3.76125C26.0731 3.40237 25.0182 3.15769 23.4758 3.087C21.9279 3.01813 21.4368 3 17.4964 3H17.5018H17.5ZM16.2004 5.61363H17.5018C21.3733 5.61363 21.8319 5.62631 23.3598 5.697C24.7736 5.76044 25.5421 5.99788 26.0532 6.19544C26.7292 6.45825 27.2132 6.77362 27.7207 7.28112C28.2282 7.78862 28.5418 8.27075 28.8046 8.94863C29.0039 9.45794 29.2396 10.2264 29.303 11.6402C29.3737 13.1681 29.3882 13.6267 29.3882 17.4964C29.3882 21.3661 29.3737 21.8264 29.303 23.3544C29.2396 24.7681 29.0021 25.5348 28.8046 26.0459C28.5721 26.6755 28.201 27.2448 27.7189 27.7116C27.2114 28.2191 26.7293 28.5327 26.0514 28.7955C25.5439 28.9949 24.7754 29.2305 23.3598 29.2958C21.8319 29.3646 21.3733 29.3809 17.5018 29.3809C13.6303 29.3809 13.1699 29.3646 11.642 29.2958C10.2283 29.2305 9.46156 28.9949 8.95044 28.7955C8.32059 28.5634 7.75079 28.193 7.28294 27.7116C6.80036 27.2441 6.42875 26.6743 6.19544 26.0441C5.99788 25.5348 5.76044 24.7663 5.697 23.3526C5.62813 21.8246 5.61363 21.3661 5.61363 17.4927C5.61363 13.6212 5.62813 13.1645 5.697 11.6366C5.76225 10.2228 5.99788 9.45431 6.19725 8.94319C6.46006 8.26713 6.77544 7.78319 7.28294 7.27569C7.79044 6.76819 8.27256 6.45463 8.95044 6.19181C9.46156 5.99244 10.2283 5.75681 11.642 5.69156C12.9796 5.62994 13.498 5.61181 16.2004 5.61V5.61363V5.61363ZM25.2412 8.02062C25.0127 8.02062 24.7864 8.06563 24.5753 8.15307C24.3642 8.24052 24.1724 8.36869 24.0108 8.53026C23.8492 8.69183 23.7211 8.88365 23.6336 9.09476C23.5462 9.30586 23.5012 9.53212 23.5012 9.76063C23.5012 9.98913 23.5462 10.2154 23.6336 10.4265C23.7211 10.6376 23.8492 10.8294 24.0108 10.991C24.1724 11.1526 24.3642 11.2807 24.5753 11.3682C24.7864 11.4556 25.0127 11.5006 25.2412 11.5006C25.7027 11.5006 26.1452 11.3173 26.4716 10.991C26.7979 10.6647 26.9812 10.2221 26.9812 9.76063C26.9812 9.29915 26.7979 8.85657 26.4716 8.53026C26.1452 8.20395 25.7027 8.02062 25.2412 8.02062V8.02062ZM17.5018 10.0542C16.5141 10.0388 15.5332 10.2201 14.6163 10.5874C13.6993 10.9547 12.8646 11.5008 12.1606 12.1938C11.4567 12.8868 10.8977 13.7129 10.5161 14.624C10.1346 15.5352 9.93807 16.5131 9.93807 17.5009C9.93807 18.4887 10.1346 19.4666 10.5161 20.3778C10.8977 21.2889 11.4567 22.115 12.1606 22.808C12.8646 23.5011 13.6993 24.0471 14.6163 24.4144C15.5332 24.7817 16.5141 24.963 17.5018 24.9476C19.4567 24.9171 21.3211 24.1191 22.6928 22.7259C24.0644 21.3327 24.8332 19.456 24.8332 17.5009C24.8332 15.5458 24.0644 13.6691 22.6928 12.2759C21.3211 10.8827 19.4567 10.0847 17.5018 10.0542V10.0542ZM17.5018 12.6661C18.7839 12.6661 20.0134 13.1754 20.9199 14.0819C21.8265 14.9884 22.3358 16.218 22.3358 17.5C22.3358 18.782 21.8265 20.0116 20.9199 20.9181C20.0134 21.8246 18.7839 22.3339 17.5018 22.3339C16.2198 22.3339 14.9902 21.8246 14.0837 20.9181C13.1772 20.0116 12.6679 18.782 12.6679 17.5C12.6679 16.218 13.1772 14.9884 14.0837 14.0819C14.9902 13.1754 16.2198 12.6661 17.5018 12.6661V12.6661Z" fill="white"/>
<defs>
<linearGradient id="paint0_linear_96_887" x1="1.5" y1="2" x2="29" y2="32" gradientUnits="userSpaceOnUse">
<stop stop-color="#002296"/>
<stop offset="0.192708" stop-color="#82008F" stop-opacity="0.916667"/>
<stop offset="0.328125" stop-color="#C0007A" stop-opacity="0.855694"/>
<stop offset="0.520833" stop-color="#EA0C5F" stop-opacity="0.792181"/>
<stop offset="0.661458" stop-color="#FF5341" stop-opacity="0.877198"/>
<stop offset="0.770833" stop-color="#FF8820"/>
<stop offset="1" stop-color="#F6BA00"/>
</linearGradient>
</defs>
</svg>
