<svg width="35" height="35" viewBox="0 0 35 35" fill="none" xmlns="http://www.w3.org/2000/svg">
<circle cx="17.5" cy="17.5" r="17.5" fill="#018BC9"/>
<g clip-path="url(#clip0_68_769)">
<path d="M12.8829 10.4113C12.8202 10.3306 12.741 10.2642 12.6506 10.2165C12.5603 10.1687 12.4608 10.1408 12.3588 10.1344C12.2568 10.1281 12.1546 10.1436 12.059 10.1798C11.9634 10.216 11.8767 10.2721 11.8044 10.3444L10.7058 11.4441C10.1926 11.9583 10.0035 12.6861 10.2277 13.3247C11.1582 15.9677 12.6718 18.3674 14.6562 20.3457C16.6345 22.3301 19.0341 23.8437 21.6772 24.7742C22.3158 24.9984 23.0436 24.8092 23.5578 24.2961L24.6564 23.1974C24.7287 23.1252 24.7849 23.0384 24.8211 22.9429C24.8573 22.8473 24.8727 22.7451 24.8664 22.6431C24.86 22.5411 24.8321 22.4416 24.7843 22.3513C24.7366 22.2609 24.6702 22.1817 24.5895 22.119L22.1383 20.2129C22.0521 20.146 21.9519 20.0996 21.8451 20.0772C21.7384 20.0547 21.6279 20.0568 21.5221 20.0832L19.1952 20.6644C18.8846 20.7421 18.5592 20.7379 18.2507 20.6525C17.9421 20.567 17.661 20.4031 17.4346 20.1767L14.8251 17.5662C14.5986 17.3399 14.4345 17.0588 14.3488 16.7503C14.2632 16.4418 14.2589 16.1163 14.3364 15.8056L14.9186 13.4788C14.9451 13.3729 14.9472 13.2625 14.9247 13.1557C14.9023 13.049 14.8559 12.9487 14.789 12.8625L12.8829 10.4113ZM11.0023 9.54325C11.1882 9.35726 11.4116 9.21295 11.6575 9.11991C11.9035 9.02687 12.1665 8.98722 12.429 9.0036C12.6914 9.01998 12.9474 9.09201 13.1799 9.21491C13.4124 9.33782 13.6161 9.50877 13.7775 9.71644L15.6836 12.1666C16.0332 12.616 16.1564 13.2014 16.0183 13.7539L15.4371 16.0808C15.4071 16.2013 15.4087 16.3276 15.4418 16.4473C15.475 16.567 15.5385 16.6761 15.6263 16.764L18.2368 19.3746C18.3248 19.4625 18.4341 19.5261 18.554 19.5593C18.6739 19.5924 18.8004 19.5939 18.9211 19.5637L21.2469 18.9825C21.5195 18.9143 21.8041 18.909 22.0791 18.967C22.3541 19.025 22.6123 19.1447 22.8343 19.3172L25.2844 21.2233C26.1652 21.9086 26.2459 23.2102 25.4576 23.9975L24.3589 25.0961C23.5727 25.8824 22.3976 26.2277 21.3021 25.842C18.4984 24.8555 15.9527 23.2504 13.854 21.1457C11.7495 19.0473 10.1444 16.5021 9.15775 13.6987C8.77313 12.6043 9.11844 11.4281 9.90469 10.6419L11.0033 9.54325H11.0023Z" fill="white"/>
</g>
<defs>
<clipPath id="clip0_68_769">
<rect width="17" height="17" fill="white" transform="translate(9 9)"/>
</clipPath>
</defs>
</svg>
